<?xml version="1.0" standalone="no"?>
<!DOCTYPE svg PUBLIC "-//W3C//DTD SVG 20010904//EN"
 "http://www.w3.org/TR/2001/REC-SVG-20010904/DTD/svg10.dtd">
<svg version="1.0" xmlns="http://www.w3.org/2000/svg"
 width="512.000000pt" height="512.000000pt" viewBox="0 0 512.000000 512.000000"
 preserveAspectRatio="xMidYMid meet">
<metadata>
Created by potrace 1.14, written by Peter Selinger 2001-2017
</metadata>
<g transform="translate(0.000000,512.000000) scale(0.100000,-0.100000)"
fill="#000000" stroke="none">
<path d="M2236 5104 c-453 -58 -919 -256 -1281 -544 -510 -406 -859 -1034
-940 -1690 -20 -161 -20 -459 0 -620 71 -576 347 -1129 761 -1530 399 -386
924 -637 1474 -705 161 -20 459 -20 620 0 550 68 1075 319 1474 705 414 401
690 954 761 1530 20 161 20 459 0 620 -71 576 -347 1129 -761 1530 -399 386
-924 637 -1474 705 -154 19 -482 18 -634 -1z m-181 -1748 c234 -38 348 -88
466 -206 112 -111 164 -228 189 -424 22 -175 6 -367 -41 -511 -85 -257 -266
-389 -611 -446 -50 -8 -277 -13 -715 -16 l-643 -4 0 809 c0 639 3 812 13 816
6 3 289 4 627 2 509 -3 632 -6 715 -20z m1986 -480 c130 -28 242 -105 302
-207 14 -24 38 -84 53 -134 27 -88 27 -97 31 -405 3 -207 1 -324 -6 -342 -15
-39 -58 -48 -83 -18 -14 18 -18 40 -18 107 l0 85 -57 -53 c-77 -69 -193 -124
-319 -150 -84 -18 -125 -20 -269 -16 -115 2 -194 10 -245 22 -248 59 -352 182
-319 378 34 203 218 297 586 297 218 0 420 -26 550 -71 31 -10 60 -19 66 -19
14 0 -2 136 -25 204 -36 111 -108 190 -206 226 -144 54 -527 46 -770 -15 -51
-13 -99 -22 -107 -19 -20 8 -29 42 -15 59 20 25 185 61 350 78 103 11 440 6
501 -7z"/>
<path d="M810 2566 l0 -726 530 0 c298 0 573 5 628 10 358 39 545 176 609 447
26 112 25 437 -1 538 -53 205 -165 326 -356 390 -161 54 -200 56 -827 62
l-583 5 0 -726z"/>
<path d="M3485 2349 c-164 -27 -253 -104 -270 -234 -10 -76 9 -132 64 -186 87
-86 212 -114 476 -106 141 4 185 9 262 31 102 28 195 71 260 120 l42 31 1 151
0 151 -52 7 c-295 37 -409 46 -563 45 -93 -1 -192 -5 -220 -10z"/>
</g>
</svg>
